<svg xmlns="http://www.w3.org/2000/svg" viewBox="0 0 1100 300">
  <!-- User Box -->
  <rect x="20" y="120" width="120" height="60" fill="white" stroke="black" stroke-width="2" rx="5"/>
  <text x="80" y="155" text-anchor="middle" font-family="Arial" font-size="14" font-weight="bold">User</text>
  
  <!-- Arrow 1 -->
  <line x1="140" y1="150" x2="180" y2="150" stroke="black" stroke-width="2"/>
  <polygon points="180,150 170,145 170,155" fill="black"/>
  
  <!-- Rate Limiter Box -->
  <rect x="180" y="120" width="140" height="60" fill="white" stroke="black" stroke-width="2" rx="5"/>
  <text x="250" y="155" text-anchor="middle" font-family="Arial" font-size="14" font-weight="bold">Rate Limiter</text>
  
  <!-- Arrow 2 -->
  <line x1="320" y1="150" x2="360" y2="150" stroke="black" stroke-width="2"/>
  <polygon points="360,150 350,145 350,155" fill="black"/>
  
  <!-- Check Request Count Box -->
  <rect x="360" y="120" width="160" height="60" fill="white" stroke="black" stroke-width="2" rx="5"/>
  <text x="440" y="155" text-anchor="middle" font-family="Arial" font-size="14" font-weight="bold">Check Request Count</text>
  
  <!-- Arrow 3 -->
  <line x1="520" y1="150" x2="560" y2="150" stroke="black" stroke-width="2"/>
  <polygon points="560,150 550,145 550,155" fill="black"/>
  
  <!-- Decision Diamond -->
  <polygon points="620,150 680,110 740,150 680,190" fill="white" stroke="black" stroke-width="2"/>
  <text x="680" y="150" text-anchor="middle" dominant-baseline="middle" font-family="Arial" font-size="12" font-weight="bold">Limit</text>
  <text x="680" y="165" text-anchor="middle" dominant-baseline="middle" font-family="Arial" font-size="12" font-weight="bold">Exceeded?</text>
  
  <!-- Arrow to Allow Request (No) -->
  <line x1="740" y1="130" x2="800" y2="80" stroke="black" stroke-width="2"/>
  <text x="770" y="100" font-family="Arial" font-size="12" font-weight="bold">No</text>
  <polygon points="800,80 791,87 797,95" fill="black"/>
  
  <!-- Allow Request Box -->
  <rect x="800" y="50" width="140" height="60" fill="white" stroke="black" stroke-width="2" rx="5"/>
  <text x="870" y="85" text-anchor="middle" font-family="Arial" font-size="14" font-weight="bold">Allow Request</text>
  
  <!-- Arrow to Block Request (Yes) -->
  <line x1="740" y1="170" x2="800" y2="220" stroke="black" stroke-width="2"/>
  <text x="770" y="200" font-family="Arial" font-size="12" font-weight="bold">Yes</text>
  <polygon points="800,220 797,205 791,213" fill="black"/>
  
  <!-- Block Request Box -->
  <rect x="800" y="190" width="140" height="60" fill="white" stroke="black" stroke-width="2" rx="5"/>
  <text x="870" y="225" text-anchor="middle" font-family="Arial" font-size="14" font-weight="bold">Block Request</text>
  
  <!-- Arrows from Allow and Block to Send Response -->
  <line x1="940" y1="80" x2="980" y2="130" stroke="black" stroke-width="2"/>
  <line x1="940" y1="220" x2="980" y2="170" stroke="black" stroke-width="2"/>
  
  <!-- Send Response Box -->
  <rect x="980" y="100" width="120" height="60" fill="white" stroke="black" stroke-width="2" rx="5"/>
  <text x="1040" y="135" text-anchor="middle" font-family="Arial" font-size="14" font-weight="bold">Send Response</text>
</svg>